# 3ds Max Wavefront OBJ Exporter v0.97b - (c)2007 guruware
# File Created: 27.04.2018 21:04:23

mtllib ss1_right.mtl

#
# object shutter001
#

v  -1.001790 0.000000 -1.105316
v  -1.001790 0.000000 -0.394686
v  -3.962420 0.000000 -0.394686
v  -3.962420 0.000000 -1.105316
v  -1.001790 35.500000 -1.105316
v  -3.962420 35.500000 -1.105316
v  -3.962420 35.500000 -0.394686
v  -1.001790 35.500000 -0.394686
v  -0.990259 0.019685 -1.125001
v  -3.973951 0.019685 -1.125001
v  -4.962420 1.008154 -1.125001
v  -3.973951 35.480316 -1.125001
v  -4.962420 34.491848 -1.125001
v  -0.990259 35.480316 -1.125001
v  -0.001790 34.491848 -1.125001
v  -0.001790 1.008154 -1.125001
v  -4.982105 1.019685 -1.105316
v  -4.982105 1.019685 -0.394686
v  -4.982105 34.480316 -0.394686
v  -4.982105 34.480316 -1.105316
v  -3.973951 0.019685 -0.375001
v  -0.990259 0.019685 -0.375001
v  -0.001790 1.008154 -0.375001
v  -0.990259 35.480316 -0.375001
v  -0.001790 34.491848 -0.375001
v  -3.973951 35.480316 -0.375001
v  -4.962420 34.491848 -0.375001
v  -4.962420 1.008154 -0.375001
v  0.017895 1.019685 -0.394686
v  0.017895 1.019685 -1.105316
v  0.017895 34.480316 -1.105316
v  0.017895 34.480316 -0.394686
v  -0.968185 0.013919 -1.105316
v  0.003976 0.986081 -1.105316
v  0.003976 0.986081 -0.394686
v  -0.968185 0.013919 -0.394686
v  -3.996024 0.013919 -0.394686
v  -4.968185 0.986081 -0.394686
v  -4.968185 0.986081 -1.105316
v  -3.996024 0.013919 -1.105316
v  -3.996024 35.486080 -1.105316
v  -4.968185 34.513920 -1.105316
v  -4.968185 34.513920 -0.394686
v  -3.996024 35.486080 -0.394686
v  -0.968185 35.486080 -0.394686
v  0.003976 34.513920 -0.394686
v  0.003976 34.513920 -1.105316
v  -0.968185 35.486080 -1.105316
# 48 vertices

vn 0.195090 -0.980785 0.000000
vn 0.195090 -0.980785 -0.000000
vn -0.195090 -0.980785 -0.000000
vn 0.195095 0.980784 -0.000000
vn -0.195095 0.980784 -0.000000
vn 0.000000 0.000000 -1.000000
vn -0.980785 -0.195090 -0.000000
vn -0.980785 0.195094 -0.000000
vn 0.000000 0.000000 1.000000
vn 0.980785 -0.195090 -0.000000
vn 0.980785 0.195094 -0.000000
vn 0.555570 -0.831470 0.000000
vn 0.831470 -0.555570 -0.000000
vn 0.831470 -0.555570 0.000000
vn -0.555570 -0.831470 -0.000000
vn -0.831470 -0.555570 -0.000000
vn -0.555574 0.831467 -0.000000
vn -0.831468 0.555573 -0.000000
vn 0.555574 0.831467 -0.000000
vn 0.831468 0.555573 -0.000000
vn 0.280763 -0.677822 -0.679507
vn 0.446184 -0.589826 -0.673072
vn 0.101570 -0.732570 -0.673071
vn -0.101570 -0.732570 -0.673071
vn -0.446184 -0.589826 -0.673072
vn -0.280763 -0.677822 -0.679507
vn 0.677822 -0.280763 0.679507
vn 0.589826 -0.446183 0.673072
vn 0.732570 -0.101570 0.673071
vn -0.101570 -0.732570 0.673071
vn -0.280763 -0.677822 0.679507
vn -0.446184 -0.589826 0.673072
vn 0.732571 0.101571 -0.673069
vn 0.677827 0.280773 -0.679498
vn 0.589838 0.446193 -0.673055
vn -0.589838 0.446193 -0.673055
vn -0.677827 0.280773 -0.679498
vn -0.732571 0.101571 -0.673069
vn 0.732571 0.101571 0.673069
vn 0.589838 0.446193 0.673055
vn 0.677827 0.280773 0.679498
vn -0.732571 0.101571 0.673069
vn -0.677827 0.280773 0.679498
vn -0.589838 0.446193 0.673055
vn 0.677822 -0.280763 -0.679507
vn 0.732570 -0.101570 -0.673071
vn 0.589826 -0.446183 -0.673072
vn -0.589826 -0.446183 -0.673072
vn -0.732570 -0.101570 -0.673071
vn -0.677822 -0.280763 -0.679507
vn 0.446184 -0.589826 0.673072
vn 0.280763 -0.677822 0.679507
vn 0.101570 -0.732570 0.673071
vn -0.677822 -0.280763 0.679507
vn -0.732570 -0.101570 0.673071
vn -0.589826 -0.446183 0.673072
vn 0.280773 0.677846 -0.679479
vn 0.101575 0.732592 -0.673046
vn 0.446201 0.589840 -0.673048
vn -0.446201 0.589840 -0.673048
vn -0.101575 0.732592 -0.673046
vn -0.280773 0.677846 -0.679479
vn 0.446201 0.589840 0.673048
vn 0.101575 0.732592 0.673046
vn 0.280773 0.677846 0.679479
vn -0.280773 0.677846 0.679479
vn -0.101575 0.732592 0.673046
vn -0.446201 0.589840 0.673048
# 68 vertex normals

vt 0.796063 0.026248 0.000000
vt 0.796063 0.973753 0.000000
vt 0.203937 0.973752 0.000000
vt 0.203937 0.026247 0.000000
vt 0.203937 0.026248 1.000000
vt 0.796063 0.026247 1.000000
vt 0.796063 0.973752 1.000000
vt 0.203937 0.973753 1.000000
vt 0.201631 0.000555 0.000001
vt 0.798369 0.000555 0.000000
vt 0.996063 0.028399 0.000000
vt 0.798369 0.999445 0.000000
vt 0.996063 0.971601 0.000000
vt 0.201631 0.999445 0.000001
vt 0.003937 0.971601 0.000002
vt 0.003937 0.028399 0.000002
vt 0.026247 0.028724 1.000000
vt 0.973752 0.028724 1.000000
vt 0.973752 0.971277 1.000000
vt 0.026247 0.971277 1.000000
vt 0.201631 0.000555 0.999999
vt 0.798369 0.000555 1.000000
vt 0.996063 0.028399 1.000000
vt 0.798369 0.999445 1.000000
vt 0.996063 0.971601 1.000000
vt 0.201631 0.999445 0.999999
vt 0.003937 0.971601 0.999998
vt 0.003937 0.028399 0.999998
vt 0.026247 0.028724 0.000000
vt 0.973752 0.028724 0.000000
vt 0.973752 0.971277 0.000000
vt 0.026247 0.971277 0.000000
vt 0.973752 0.000392 0.197216
vt 0.973752 0.027777 0.002784
vt 0.026247 0.027777 0.002784
vt 0.026247 0.000392 0.197216
vt 0.973752 0.000392 0.802784
vt 0.973752 0.027777 0.997216
vt 0.026247 0.027777 0.997216
vt 0.026247 0.000392 0.802784
vt 0.026247 0.999608 0.802784
vt 0.026247 0.972223 0.997216
vt 0.973752 0.972223 0.997216
vt 0.973752 0.999608 0.802784
vt 0.026247 0.999608 0.197216
vt 0.026247 0.972223 0.002784
vt 0.973752 0.972223 0.002784
vt 0.973752 0.999608 0.197216
vt 0.197216 0.000392 0.026248
vt 0.203937 0.000000 0.026248
vt 0.796063 0.000000 0.026247
vt 0.802784 0.000392 0.026247
vt 0.997216 0.027777 0.973753
vt 1.000000 0.028724 0.973753
vt 0.203937 0.000000 0.973752
vt 0.197216 0.000392 0.973752
vt 0.000000 0.971277 0.026248
vt 0.002784 0.972223 0.026248
vt 0.997216 0.972223 0.026247
vt 1.000000 0.971277 0.026247
vt 1.000000 0.971277 0.973753
vt 0.997216 0.972223 0.973753
vt 0.000000 0.971277 0.973752
vt 0.002784 0.972223 0.973752
vt 0.000000 0.028724 0.026248
vt 0.002784 0.027777 0.026248
vt 0.997216 0.027777 0.026247
vt 1.000000 0.028724 0.026247
vt 0.802784 0.000392 0.973753
vt 0.796063 0.000000 0.973753
vt 0.000000 0.028724 0.973752
vt 0.002784 0.027777 0.973752
vt 0.203937 1.000000 0.026248
vt 0.197216 0.999608 0.026248
vt 0.802784 0.999608 0.026247
vt 0.796063 1.000000 0.026247
vt 0.802784 0.999608 0.973753
vt 0.796063 1.000000 0.973753
vt 0.203937 1.000000 0.973752
vt 0.197216 0.999608 0.973752
vt 0.973752 0.000000 0.203937
vt 0.026247 0.000000 0.203937
vt 0.973752 0.000000 0.796063
vt 0.026247 0.000000 0.796063
vt 0.026247 1.000000 0.796063
vt 0.973752 1.000000 0.796063
vt 0.026247 1.000000 0.203937
vt 0.973752 1.000000 0.203937
# 88 texture coords

g shutter001
usemtl 3v
s 1
f 1/1/1 2/2/2 3/3/3 4/4/3 
f 5/5/4 6/6/5 7/7/5 8/8/4 
f 9/9/6 10/10/6 11/11/6 12/12/6 
f 11/11/6 13/13/6 12/12/6 
f 12/12/6 14/14/6 15/15/6 9/9/6 
f 16/16/6 9/9/6 15/15/6 
f 17/17/7 18/18/7 19/19/8 20/20/8 
f 21/21/9 22/22/9 23/23/9 24/24/9 
f 23/23/9 25/25/9 24/24/9 
f 24/24/9 26/26/9 27/27/9 21/21/9 
f 28/28/9 21/21/9 27/27/9 
f 29/29/10 30/30/10 31/31/11 32/32/11 
f 33/33/12 34/34/13 35/35/14 36/36/12 
f 37/37/15 38/38/16 39/39/16 40/40/15 
f 41/41/17 42/42/18 43/43/18 44/44/17 
f 45/45/19 46/46/20 47/47/20 48/48/19 
s 2
f 9/9/21 33/49/22 1/50/23 
f 4/51/24 40/52/25 10/10/26 
f 23/23/27 35/53/28 29/54/29 
f 3/55/30 21/21/31 37/56/32 
f 31/57/33 15/15/34 47/58/35 
f 42/59/36 13/13/37 20/60/38 
f 32/61/39 46/62/40 25/25/41 
f 19/63/42 27/27/43 43/64/44 
f 16/16/45 30/65/46 34/66/47 
f 39/67/48 17/68/49 11/11/50 
f 36/69/51 22/22/52 2/70/53 
f 28/28/54 18/71/55 38/72/56 
f 14/14/57 5/73/58 48/74/59 
f 41/75/60 6/76/61 12/12/62 
f 45/77/63 8/78/64 24/24/65 
f 26/26/66 7/79/67 44/80/68 
s 1
f 1/81/1 33/33/12 36/36/12 2/82/2 
s 2
f 2/70/53 22/22/52 21/21/31 3/55/30 
s 1
f 3/83/3 37/37/15 40/40/15 4/84/3 
s 2
f 4/51/24 10/10/26 9/9/21 1/50/23 
f 5/73/58 14/14/57 12/12/62 6/76/61 
s 1
f 6/85/5 41/41/17 44/44/17 7/86/5 
s 2
f 7/79/67 26/26/66 24/24/65 8/78/64 
s 1
f 8/87/4 45/45/19 48/48/19 5/88/4 
s 2
f 11/11/50 17/68/49 20/60/38 13/13/37 
f 15/15/34 31/57/33 30/65/46 16/16/45 
f 18/71/55 28/28/54 27/27/43 19/63/42 
f 23/23/27 29/54/29 32/61/39 25/25/41 
f 33/49/22 9/9/21 16/16/45 34/66/47 
f 39/67/48 11/11/50 10/10/26 40/52/25 
f 35/53/28 23/23/27 22/22/52 36/69/51 
f 37/56/32 21/21/31 28/28/54 38/72/56 
f 47/58/35 15/15/34 14/14/57 48/74/59 
f 41/75/60 12/12/62 13/13/37 42/59/36 
f 45/77/63 24/24/65 25/25/41 46/62/40 
f 43/64/44 27/27/43 26/26/66 44/80/68 
s 1
f 34/34/13 30/30/10 29/29/10 35/35/14 
f 38/38/16 18/18/7 17/17/7 39/39/16 
f 42/42/18 20/20/8 19/19/8 43/43/18 
f 46/46/20 32/32/11 31/31/11 47/47/20 
# 36 polygons - 20 triangles

#
# object shutter
#

v  3.998210 0.000000 -1.105316
v  3.998210 0.000000 -0.394686
v  1.037580 0.000000 -0.394686
v  1.037580 0.000000 -1.105316
v  3.998210 35.500000 -1.105316
v  1.037580 35.500000 -1.105316
v  1.037580 35.500000 -0.394686
v  3.998210 35.500000 -0.394686
v  4.009741 0.019685 -1.125001
v  1.026049 0.019685 -1.125001
v  0.037580 1.008154 -1.125001
v  1.026049 35.480316 -1.125001
v  0.037580 34.491848 -1.125001
v  4.009741 35.480316 -1.125001
v  4.998210 34.491848 -1.125001
v  4.998210 1.008154 -1.125001
v  0.017895 1.019685 -1.105316
v  0.017895 1.019685 -0.394686
v  0.017895 34.480316 -0.394686
v  0.017895 34.480316 -1.105316
v  1.026049 0.019685 -0.375001
v  4.009741 0.019685 -0.375001
v  4.998210 1.008154 -0.375001
v  4.009741 35.480316 -0.375001
v  4.998210 34.491848 -0.375001
v  1.026049 35.480316 -0.375001
v  0.037580 34.491848 -0.375001
v  0.037580 1.008154 -0.375001
v  5.017895 1.019685 -0.394686
v  5.017895 1.019685 -1.105316
v  5.017895 34.480316 -1.105316
v  5.017895 34.480316 -0.394686
v  4.031815 0.013919 -1.105316
v  5.003976 0.986081 -1.105316
v  5.003976 0.986081 -0.394686
v  4.031815 0.013919 -0.394686
v  1.003976 0.013919 -0.394686
v  0.031815 0.986081 -0.394686
v  0.031815 0.986081 -1.105316
v  1.003976 0.013919 -1.105316
v  1.003976 35.486080 -1.105316
v  0.031815 34.513920 -1.105316
v  0.031815 34.513920 -0.394686
v  1.003976 35.486080 -0.394686
v  4.031815 35.486080 -0.394686
v  5.003976 34.513920 -0.394686
v  5.003976 34.513920 -1.105316
v  4.031815 35.486080 -1.105316
# 48 vertices

vn 0.195090 -0.980785 0.000000
vn 0.195090 -0.980785 -0.000000
vn -0.195090 -0.980785 -0.000000
vn 0.195095 0.980784 -0.000000
vn -0.195095 0.980784 -0.000000
vn 0.000000 0.000000 -1.000000
vn -0.980785 -0.195090 -0.000000
vn -0.980785 0.195094 -0.000000
vn 0.000000 0.000000 1.000000
vn 0.980785 -0.195090 -0.000000
vn 0.980785 0.195094 -0.000000
vn 0.555570 -0.831470 0.000000
vn 0.831470 -0.555570 -0.000000
vn 0.831470 -0.555570 0.000000
vn -0.555570 -0.831470 -0.000000
vn -0.831470 -0.555570 -0.000000
vn -0.555574 0.831467 -0.000000
vn -0.831468 0.555573 -0.000000
vn 0.555574 0.831467 -0.000000
vn 0.831468 0.555573 -0.000000
vn 0.280763 -0.677822 -0.679507
vn 0.446184 -0.589826 -0.673072
vn 0.101570 -0.732570 -0.673071
vn -0.101570 -0.732570 -0.673071
vn -0.446184 -0.589826 -0.673072
vn -0.280763 -0.677822 -0.679507
vn 0.677822 -0.280763 0.679507
vn 0.589826 -0.446183 0.673072
vn 0.732570 -0.101570 0.673071
vn -0.101570 -0.732570 0.673071
vn -0.280763 -0.677822 0.679507
vn -0.446184 -0.589826 0.673072
vn 0.732571 0.101571 -0.673069
vn 0.677827 0.280773 -0.679498
vn 0.589838 0.446193 -0.673055
vn -0.589838 0.446193 -0.673055
vn -0.677827 0.280773 -0.679498
vn -0.732571 0.101571 -0.673069
vn 0.732571 0.101571 0.673069
vn 0.589838 0.446193 0.673055
vn 0.677827 0.280773 0.679498
vn -0.732571 0.101571 0.673069
vn -0.677827 0.280773 0.679498
vn -0.589838 0.446193 0.673055
vn 0.677822 -0.280763 -0.679507
vn 0.732570 -0.101570 -0.673071
vn 0.589826 -0.446183 -0.673072
vn -0.589826 -0.446183 -0.673072
vn -0.732570 -0.101570 -0.673071
vn -0.677822 -0.280763 -0.679507
vn 0.446184 -0.589826 0.673072
vn 0.280763 -0.677822 0.679507
vn 0.101570 -0.732570 0.673071
vn -0.677822 -0.280763 0.679507
vn -0.732570 -0.101570 0.673071
vn -0.589826 -0.446183 0.673072
vn 0.280773 0.677846 -0.679479
vn 0.101575 0.732592 -0.673046
vn 0.446201 0.589840 -0.673048
vn -0.446201 0.589840 -0.673048
vn -0.101575 0.732592 -0.673046
vn -0.280773 0.677846 -0.679479
vn 0.446201 0.589840 0.673048
vn 0.101575 0.732592 0.673046
vn 0.280773 0.677846 0.679479
vn -0.280773 0.677846 0.679479
vn -0.101575 0.732592 0.673046
vn -0.446201 0.589840 0.673048
# 68 vertex normals

vt 0.796063 0.026248 0.000000
vt 0.796063 0.973753 0.000000
vt 0.203937 0.973752 0.000000
vt 0.203937 0.026247 0.000000
vt 0.203937 0.026248 1.000000
vt 0.796063 0.026247 1.000000
vt 0.796063 0.973752 1.000000
vt 0.203937 0.973753 1.000000
vt 0.201631 0.000555 0.000001
vt 0.798369 0.000555 0.000000
vt 0.996063 0.028399 0.000000
vt 0.798369 0.999445 0.000000
vt 0.996063 0.971601 0.000000
vt 0.201631 0.999445 0.000001
vt 0.003937 0.971601 0.000002
vt 0.003937 0.028399 0.000002
vt 0.026247 0.028724 1.000000
vt 0.973752 0.028724 1.000000
vt 0.973752 0.971277 1.000000
vt 0.026247 0.971277 1.000000
vt 0.201631 0.000555 0.999999
vt 0.798369 0.000555 1.000000
vt 0.996063 0.028399 1.000000
vt 0.798369 0.999445 1.000000
vt 0.996063 0.971601 1.000000
vt 0.201631 0.999445 0.999999
vt 0.003937 0.971601 0.999998
vt 0.003937 0.028399 0.999998
vt 0.026247 0.028724 0.000000
vt 0.973752 0.028724 0.000000
vt 0.973752 0.971277 0.000000
vt 0.026247 0.971277 0.000000
vt 0.973752 0.000392 0.197216
vt 0.973752 0.027777 0.002784
vt 0.026247 0.027777 0.002784
vt 0.026247 0.000392 0.197216
vt 0.973752 0.000392 0.802784
vt 0.973752 0.027777 0.997216
vt 0.026247 0.027777 0.997216
vt 0.026247 0.000392 0.802784
vt 0.026247 0.999608 0.802784
vt 0.026247 0.972223 0.997216
vt 0.973752 0.972223 0.997216
vt 0.973752 0.999608 0.802784
vt 0.026247 0.999608 0.197216
vt 0.026247 0.972223 0.002784
vt 0.973752 0.972223 0.002784
vt 0.973752 0.999608 0.197216
vt 0.197216 0.000392 0.026248
vt 0.203937 0.000000 0.026248
vt 0.796063 0.000000 0.026247
vt 0.802784 0.000392 0.026247
vt 0.997216 0.027777 0.973753
vt 1.000000 0.028724 0.973753
vt 0.203937 0.000000 0.973752
vt 0.197216 0.000392 0.973752
vt 0.000000 0.971277 0.026248
vt 0.002784 0.972223 0.026248
vt 0.997216 0.972223 0.026247
vt 1.000000 0.971277 0.026247
vt 1.000000 0.971277 0.973753
vt 0.997216 0.972223 0.973753
vt 0.000000 0.971277 0.973752
vt 0.002784 0.972223 0.973752
vt 0.000000 0.028724 0.026248
vt 0.002784 0.027777 0.026248
vt 0.997216 0.027777 0.026247
vt 1.000000 0.028724 0.026247
vt 0.802784 0.000392 0.973753
vt 0.796063 0.000000 0.973753
vt 0.000000 0.028724 0.973752
vt 0.002784 0.027777 0.973752
vt 0.203937 1.000000 0.026248
vt 0.197216 0.999608 0.026248
vt 0.802784 0.999608 0.026247
vt 0.796063 1.000000 0.026247
vt 0.802784 0.999608 0.973753
vt 0.796063 1.000000 0.973753
vt 0.203937 1.000000 0.973752
vt 0.197216 0.999608 0.973752
vt 0.973752 0.000000 0.203937
vt 0.026247 0.000000 0.203937
vt 0.973752 0.000000 0.796063
vt 0.026247 0.000000 0.796063
vt 0.026247 1.000000 0.796063
vt 0.973752 1.000000 0.796063
vt 0.026247 1.000000 0.203937
vt 0.973752 1.000000 0.203937
# 88 texture coords

g shutter
usemtl 2v
s 1
f 49/89/69 50/90/70 51/91/71 52/92/71 
f 53/93/72 54/94/73 55/95/73 56/96/72 
f 57/97/74 58/98/74 59/99/74 60/100/74 
f 59/99/74 61/101/74 60/100/74 
f 60/100/74 62/102/74 63/103/74 57/97/74 
f 64/104/74 57/97/74 63/103/74 
f 65/105/75 66/106/75 67/107/76 68/108/76 
f 69/109/77 70/110/77 71/111/77 72/112/77 
f 71/111/77 73/113/77 72/112/77 
f 72/112/77 74/114/77 75/115/77 69/109/77 
f 76/116/77 69/109/77 75/115/77 
f 77/117/78 78/118/78 79/119/79 80/120/79 
f 81/121/80 82/122/81 83/123/82 84/124/80 
f 85/125/83 86/126/84 87/127/84 88/128/83 
f 89/129/85 90/130/86 91/131/86 92/132/85 
f 93/133/87 94/134/88 95/135/88 96/136/87 
s 2
f 57/97/89 81/137/90 49/138/91 
f 52/139/92 88/140/93 58/98/94 
f 71/111/95 83/141/96 77/142/97 
f 51/143/98 69/109/99 85/144/100 
f 79/145/101 63/103/102 95/146/103 
f 90/147/104 61/101/105 68/148/106 
f 80/149/107 94/150/108 73/113/109 
f 67/151/110 75/115/111 91/152/112 
f 64/104/113 78/153/114 82/154/115 
f 87/155/116 65/156/117 59/99/118 
f 84/157/119 70/110/120 50/158/121 
f 76/116/122 66/159/123 86/160/124 
f 62/102/125 53/161/126 96/162/127 
f 89/163/128 54/164/129 60/100/130 
f 93/165/131 56/166/132 72/112/133 
f 74/114/134 55/167/135 92/168/136 
s 1
f 49/169/69 81/121/80 84/124/80 50/170/70 
s 2
f 50/158/121 70/110/120 69/109/99 51/143/98 
s 1
f 51/171/71 85/125/83 88/128/83 52/172/71 
s 2
f 52/139/92 58/98/94 57/97/89 49/138/91 
f 53/161/126 62/102/125 60/100/130 54/164/129 
s 1
f 54/173/73 89/129/85 92/132/85 55/174/73 
s 2
f 55/167/135 74/114/134 72/112/133 56/166/132 
s 1
f 56/175/72 93/133/87 96/136/87 53/176/72 
s 2
f 59/99/118 65/156/117 68/148/106 61/101/105 
f 63/103/102 79/145/101 78/153/114 64/104/113 
f 66/159/123 76/116/122 75/115/111 67/151/110 
f 71/111/95 77/142/97 80/149/107 73/113/109 
f 81/137/90 57/97/89 64/104/113 82/154/115 
f 87/155/116 59/99/118 58/98/94 88/140/93 
f 83/141/96 71/111/95 70/110/120 84/157/119 
f 85/144/100 69/109/99 76/116/122 86/160/124 
f 95/146/103 63/103/102 62/102/125 96/162/127 
f 89/163/128 60/100/130 61/101/105 90/147/104 
f 93/165/131 72/112/133 73/113/109 94/150/108 
f 91/152/112 75/115/111 74/114/134 92/168/136 
s 1
f 82/122/81 78/118/78 77/117/78 83/123/82 
f 86/126/84 66/106/75 65/105/75 87/127/84 
f 90/130/86 68/108/76 67/107/76 91/131/86 
f 94/134/88 80/120/79 79/119/79 95/135/88 
# 36 polygons - 20 triangles

#
# object shutter003
#

v  4.517895 29.500000 -0.375000
v  4.517895 29.500000 0.125000
v  -4.482105 29.500000 0.125000
v  -4.482105 29.500000 -0.375000
v  4.517895 31.500000 -0.375000
v  -4.482105 31.500000 -0.375000
v  -4.482105 31.500000 0.125000
v  4.517895 31.500000 0.125000
# 8 vertices

vn 0.000000 -1.000000 -0.000000
vn 0.000000 1.000000 -0.000000
vn 0.000000 0.000000 -1.000000
vn -1.000000 0.000000 -0.000000
vn 0.000000 0.000000 1.000000
vn 1.000000 0.000000 -0.000000
# 6 vertex normals

vt 1.000000 0.000004 0.000000
vt 1.000000 1.000000 0.000000
vt 0.000000 0.999996 0.000000
vt 0.000000 0.000000 0.000000
vt -0.000000 0.000004 1.000000
vt 1.000000 0.000000 1.000000
vt 1.000000 0.999996 1.000000
vt -0.000000 1.000000 1.000000
vt -0.000000 0.000000 0.000004
vt 1.000000 0.000000 0.000000
vt -0.000000 1.000000 0.000004
vt 0.000000 0.000000 1.000000
vt 0.999996 0.000000 1.000000
vt 0.999996 1.000000 1.000000
vt 0.000000 1.000000 1.000000
vt 0.000000 0.000000 0.999996
vt 1.000000 1.000000 1.000000
vt 0.000000 1.000000 0.999996
vt 0.000000 0.000000 -0.000000
vt 0.999996 0.000000 -0.000000
vt 0.999996 1.000000 -0.000000
vt 0.000000 1.000000 -0.000000
# 22 texture coords

g shutter003
usemtl 6h
s 2
f 97/177/137 98/178/137 99/179/137 100/180/137 
s 4
f 101/181/138 102/182/138 103/183/138 104/184/138 
s 8
f 97/185/139 100/186/139 102/178/139 101/187/139 
s 16
f 100/188/140 99/189/140 103/190/140 102/191/140 
s 32
f 99/192/141 98/182/141 104/193/141 103/194/141 
s 64
f 98/195/142 97/196/142 101/197/142 104/198/142 
# 6 polygons

#
# object shutter004
#

v  -1.956027 6.000000 -0.375001
v  -1.956027 6.000000 0.124999
v  -3.956027 6.000000 0.124999
v  -3.956027 6.000000 -0.375001
v  3.902342 29.500000 -0.375001
v  1.902342 29.500000 -0.375001
v  1.902342 29.500000 0.124999
v  3.902342 29.500000 0.124999
# 8 vertices

vn 0.000000 -1.000000 -0.000000
vn 0.000000 1.000000 -0.000000
vn 0.000000 0.000000 -1.000000
vn -0.970304 0.241889 -0.000000
vn 0.000000 0.000000 1.000000
vn 0.970304 -0.241889 -0.000000
# 6 vertex normals

vt 0.999998 0.020993 0.110396
vt 0.000002 0.020993 0.110396
vt 0.000004 0.001376 0.878718
vt 1.000000 0.001376 0.878718
vt 0.000004 0.998624 0.121282
vt 0.000002 0.979007 0.889604
vt 0.999998 0.979007 0.889604
vt 1.000000 0.998624 0.121282
vt 0.110396 0.020993 0.000002
vt 0.878718 0.001376 0.000000
vt 0.889604 0.979007 0.000002
vt 0.121282 0.998624 0.000004
vt 0.000000 0.001376 0.878718
vt 0.999996 0.001376 0.878718
vt 0.121282 0.001376 0.999996
vt 0.889604 0.020993 0.999998
vt 0.878718 0.998624 1.000000
vt 0.110396 0.979007 0.999998
vt 0.999996 0.998624 0.121282
vt 0.000000 0.998624 0.121282
# 20 texture coords

g shutter004
usemtl 4v
s 2
f 105/199/143 106/200/143 107/201/143 108/202/143 
s 4
f 109/203/144 110/204/144 111/205/144 112/206/144 
s 8
f 105/207/145 108/208/145 110/209/145 109/210/145 
s 16
f 108/211/146 107/212/146 111/205/146 110/204/146 
s 32
f 107/213/147 106/214/147 112/215/147 111/216/147 
s 64
f 106/200/148 105/199/148 109/217/148 112/218/148 
# 6 polygons

#
# object shutter002
#

v  4.517895 4.000000 -0.375001
v  4.517895 4.000000 0.124999
v  -4.482105 4.000000 0.124999
v  -4.482105 4.000000 -0.375001
v  4.517895 6.000000 -0.375001
v  -4.482105 6.000000 -0.375001
v  -4.482105 6.000000 0.124999
v  4.517895 6.000000 0.124999
# 8 vertices

vn 0.000000 -1.000000 -0.000000
vn 0.000000 1.000000 -0.000000
vn 0.000000 0.000000 -1.000000
vn -1.000000 0.000000 -0.000000
vn 0.000000 0.000000 1.000000
vn 1.000000 0.000000 -0.000000
# 6 vertex normals

vt 1.000000 0.000004 0.000000
vt 1.000000 1.000000 0.000000
vt 0.000000 0.999996 0.000000
vt 0.000000 0.000000 0.000000
vt -0.000000 0.000004 1.000000
vt 1.000000 0.000000 1.000000
vt 1.000000 0.999996 1.000000
vt -0.000000 1.000000 1.000000
vt -0.000000 0.000000 0.000004
vt 1.000000 0.000000 0.000000
vt -0.000000 1.000000 0.000004
vt 0.000000 0.000000 1.000000
vt 0.999996 0.000000 1.000000
vt 0.999996 1.000000 1.000000
vt 0.000000 1.000000 1.000000
vt 0.000000 0.000000 0.999996
vt 1.000000 1.000000 1.000000
vt 0.000000 1.000000 0.999996
vt 0.000000 0.000000 -0.000000
vt 0.999996 0.000000 -0.000000
vt 0.999996 1.000000 -0.000000
vt 0.000000 1.000000 -0.000000
# 22 texture coords

g shutter002
usemtl 5h
s 2
f 113/219/149 114/220/149 115/221/149 116/222/149 
s 4
f 117/223/150 118/224/150 119/225/150 120/226/150 
s 8
f 113/227/151 116/228/151 118/220/151 117/229/151 
s 16
f 116/230/152 115/231/152 119/232/152 118/233/152 
s 32
f 115/234/153 114/224/153 120/235/153 119/236/153 
s 64
f 114/237/154 113/238/154 117/239/154 120/240/154 
# 6 polygons

