# 3ds Max Wavefront OBJ Exporter v0.97b - (c)2007 guruware
# File Created: 03.06.2018 17:29:28

mtllib t1d.mtl

#
# object box_bottom
#

v  -29.874996 -4.416496 0.000107
v  -29.874996 -4.416496 -3.499893
v  29.875004 -4.416496 -3.499893
v  29.875004 -4.416496 0.000107
v  -29.874996 -2.916496 0.000107
v  29.875004 -2.916496 0.000107
v  29.875004 -2.916496 -3.499893
v  -29.874996 -2.916496 -3.499893
# 8 vertices

vn 0.000000 -1.000000 -0.000000
vn 0.000000 1.000000 -0.000000
vn 0.000000 0.000000 1.000000
vn 1.000000 0.000000 -0.000000
vn 0.000000 0.000000 -1.000000
vn -1.000000 0.000000 -0.000000
# 6 vertex normals

vt 1.000000 0.000004 0.000000
vt 1.000000 1.000000 0.000000
vt 0.000000 0.999996 0.000000
vt 0.000000 0.000000 0.000000
vt 0.000000 0.000004 1.000000
vt 1.000000 0.000000 1.000000
vt 1.000000 0.999996 1.000000
vt 0.000000 1.000000 1.000000
vt 0.000000 0.000000 0.000004
vt 1.000000 0.000000 0.000000
vt 0.000000 1.000000 0.000004
vt 0.000000 0.000000 1.000000
vt 0.999996 0.000000 1.000000
vt 0.999996 1.000000 1.000000
vt 0.000000 0.000000 0.999996
vt 1.000000 1.000000 1.000000
vt 0.000000 1.000000 0.999996
vt 0.999996 0.000000 0.000000
vt 0.999996 1.000000 0.000000
vt 0.000000 1.000000 0.000000
# 20 texture coords

g box_bottom
usemtl 6h
s 2
f 1/1/1 2/2/1 3/3/1 4/4/1 
s 4
f 5/5/2 6/6/2 7/7/2 8/8/2 
s 8
f 1/9/3 4/10/3 6/2/3 5/11/3 
s 16
f 4/12/4 3/13/4 7/14/4 6/8/4 
s 32
f 3/15/5 2/6/5 8/16/5 7/17/5 
s 64
f 2/4/6 1/18/6 5/19/6 8/20/6 
# 6 polygons

#
# object box_top
#

v  -29.874996 2.916504 0.000107
v  -29.874996 2.916504 -3.499893
v  29.875004 2.916504 -3.499893
v  29.875004 2.916504 0.000107
v  -29.874996 4.416504 0.000107
v  29.875004 4.416504 0.000107
v  29.875004 4.416504 -3.499893
v  -29.874996 4.416504 -3.499893
# 8 vertices

vn 0.000000 -1.000000 -0.000000
vn 0.000000 1.000000 -0.000000
vn 0.000000 0.000000 1.000000
vn 1.000000 0.000000 -0.000000
vn 0.000000 0.000000 -1.000000
vn -1.000000 0.000000 -0.000000
# 6 vertex normals

vt 1.000000 0.000004 0.000000
vt 1.000000 1.000000 0.000000
vt 0.000000 0.999996 0.000000
vt 0.000000 0.000000 0.000000
vt 0.000000 0.000004 1.000000
vt 1.000000 0.000000 1.000000
vt 1.000000 0.999996 1.000000
vt 0.000000 1.000000 1.000000
vt 0.000000 0.000000 0.000004
vt 1.000000 0.000000 0.000000
vt 0.000000 1.000000 0.000004
vt 0.000000 0.000000 1.000000
vt 0.999996 0.000000 1.000000
vt 0.999996 1.000000 1.000000
vt 0.000000 0.000000 0.999996
vt 1.000000 1.000000 1.000000
vt 0.000000 1.000000 0.999996
vt 0.999996 0.000000 0.000000
vt 0.999996 1.000000 0.000000
vt 0.000000 1.000000 0.000000
# 20 texture coords

g box_top
usemtl 5h
s 2
f 9/21/7 10/22/7 11/23/7 12/24/7 
s 4
f 13/25/8 14/26/8 15/27/8 16/28/8 
s 8
f 9/29/9 12/30/9 14/22/9 13/31/9 
s 16
f 12/32/10 11/33/10 15/34/10 14/28/10 
s 32
f 11/35/11 10/26/11 16/36/11 15/37/11 
s 64
f 10/24/12 9/38/12 13/39/12 16/40/12 
# 6 polygons

#
# object box001
#

v  -29.874996 -3.337166 0.000107
v  -29.874996 -3.337166 -3.499893
v  -28.374996 -3.337166 -3.499893
v  -28.374996 -3.337166 0.000107
v  -29.874996 3.412834 0.000107
v  -28.374996 3.412834 0.000107
v  -28.374996 3.412834 -3.499893
v  -29.874996 3.412834 -3.499893
# 8 vertices

vn 0.000000 -1.000000 -0.000000
vn 0.000000 1.000000 -0.000000
vn 0.000000 0.000000 1.000000
vn 1.000000 0.000000 -0.000000
vn 0.000000 0.000000 -1.000000
vn -1.000000 0.000000 -0.000000
# 6 vertex normals

vt 1.000000 0.000000 0.000000
vt 0.999999 1.000000 0.000000
vt 0.000000 1.000000 0.000000
vt 0.000001 0.000000 0.000000
vt 0.000000 0.000000 1.000000
vt 0.999999 0.000000 1.000000
vt 1.000000 1.000000 1.000000
vt 0.000001 1.000000 1.000000
vt 0.000000 0.000000 0.000000
vt 0.999999 0.000000 0.000000
vt 0.000000 0.000000 0.999999
vt 1.000000 0.000000 1.000000
vt 0.000000 1.000000 0.999999
vt 0.999999 1.000000 1.000000
vt 0.000000 1.000000 1.000000
vt 0.000000 0.000000 0.000001
vt 1.000000 1.000000 0.000000
vt 0.000000 1.000000 0.000001
# 18 texture coords

g box001
usemtl 6h
s 2
f 17/41/13 18/42/13 19/43/13 20/44/13 
s 4
f 21/45/14 22/46/14 23/47/14 24/48/14 
s 8
f 17/49/15 20/50/15 22/42/15 21/43/15 
s 16
f 20/51/16 19/52/16 23/47/16 22/53/16 
s 32
f 19/45/17 18/46/17 24/54/17 23/55/17 
s 64
f 18/56/18 17/41/18 21/57/18 24/58/18 
# 6 polygons

#
# object glass
#

v  -28.689194 -3.108841 -1.686103
v  -28.689194 -3.108841 -1.804213
v  -14.344595 -3.108841 -1.804213
v  -14.344595 -3.108841 -1.686103
v  0.000003 -3.108841 -1.804213
v  0.000003 -3.108841 -1.686103
v  14.344601 -3.108841 -1.804213
v  14.344601 -3.108841 -1.686103
v  28.689198 -3.108841 -1.804213
v  28.689198 -3.108841 -1.686103
v  -28.689194 3.087955 -1.686103
v  -14.344595 3.087955 -1.686103
v  -14.344595 3.087955 -1.804213
v  -28.689194 3.087955 -1.804213
v  0.000003 3.087955 -1.686103
v  0.000003 3.087955 -1.804213
v  14.344601 3.087955 -1.686103
v  14.344601 3.087955 -1.804213
v  28.689198 3.087955 -1.686103
v  28.689198 3.087955 -1.804213
# 20 vertices

vn 0.000000 -1.000000 -0.000000
vn 0.000000 1.000000 -0.000000
vn 0.000000 0.000000 1.000000
vn 1.000000 0.000000 -0.000000
vn 0.000000 0.000000 -1.000000
vn -1.000000 0.000000 -0.000000
# 6 vertex normals

vt 1.000000 0.000116 0.393459
vt 1.000000 1.000000 0.393459
vt 0.750000 0.999971 0.393459
vt 0.750000 0.000087 0.393459
vt 0.500000 0.999942 0.393459
vt 0.500000 0.000058 0.393459
vt 0.250000 0.999913 0.393459
vt 0.250000 0.000029 0.393459
vt 0.000000 0.999884 0.393459
vt 0.000000 0.000000 0.393459
vt 0.000000 0.000116 0.606541
vt 0.250000 0.000087 0.606541
vt 0.250000 0.999971 0.606541
vt 0.000000 1.000000 0.606541
vt 0.500000 0.000058 0.606541
vt 0.500000 0.999942 0.606541
vt 0.750000 0.000029 0.606541
vt 0.750000 0.999913 0.606541
vt 1.000000 0.000000 0.606541
vt 1.000000 0.999884 0.606541
vt 0.000000 0.393459 0.000116
vt 0.250000 0.393459 0.000087
vt 0.250000 0.606541 0.000087
vt 0.000000 0.606541 0.000116
vt 0.500000 0.393459 0.000058
vt 0.500000 0.606541 0.000058
vt 0.750000 0.393459 0.000029
vt 0.750000 0.606541 0.000029
vt 1.000000 0.393459 0.000000
vt 1.000000 0.606541 0.000000
vt 0.000000 0.393459 1.000000
vt 0.999884 0.393459 1.000000
vt 0.999884 0.606541 1.000000
vt 0.000000 0.606541 1.000000
vt 0.000000 0.393459 0.999884
vt 0.250000 0.393459 0.999913
vt 0.250000 0.606541 0.999913
vt 0.000000 0.606541 0.999884
vt 0.500000 0.393459 0.999942
vt 0.500000 0.606541 0.999942
vt 0.750000 0.393459 0.999971
vt 0.750000 0.606541 0.999971
vt 1.000000 0.393459 1.000000
vt 1.000000 0.606541 1.000000
vt 0.000000 0.393459 0.000000
vt 0.999884 0.393459 0.000000
vt 0.999884 0.606541 0.000000
vt 0.000000 0.606541 0.000000
# 48 texture coords

g glass
usemtl glass
s 2
f 25/59/19 26/60/19 27/61/19 28/62/19 
f 28/62/19 27/61/19 29/63/19 30/64/19 
f 30/64/19 29/63/19 31/65/19 32/66/19 
f 32/66/19 31/65/19 33/67/19 34/68/19 
s 4
f 35/69/20 36/70/20 37/71/20 38/72/20 
f 36/70/20 39/73/20 40/74/20 37/71/20 
f 39/73/20 41/75/20 42/76/20 40/74/20 
f 41/75/20 43/77/20 44/78/20 42/76/20 
s 8
f 25/79/21 28/80/21 36/81/21 35/82/21 
f 28/80/21 30/83/21 39/84/21 36/81/21 
f 30/83/21 32/85/21 41/86/21 39/84/21 
f 32/85/21 34/87/21 43/88/21 41/86/21 
s 16
f 34/89/22 33/90/22 44/91/22 43/92/22 
s 32
f 33/93/23 31/94/23 42/95/23 44/96/23 
f 31/94/23 29/97/23 40/98/23 42/95/23 
f 29/97/23 27/99/23 37/100/23 40/98/23 
f 27/99/23 26/101/23 38/102/23 37/100/23 
s 64
f 26/103/24 25/104/24 35/105/24 38/106/24 
# 18 polygons

#
# object box005
#

v  28.375004 -3.337166 0.000107
v  28.375004 -3.337166 -3.499893
v  29.875004 -3.337166 -3.499893
v  29.875004 -3.337166 0.000107
v  28.375004 3.412834 0.000107
v  29.875004 3.412834 0.000107
v  29.875004 3.412834 -3.499893
v  28.375004 3.412834 -3.499893
# 8 vertices

vn 0.000000 -1.000000 -0.000000
vn 0.000000 1.000000 -0.000000
vn 0.000000 0.000000 1.000000
vn 1.000000 0.000000 -0.000000
vn 0.000000 0.000000 -1.000000
vn -1.000000 0.000000 -0.000000
# 6 vertex normals

vt 1.000000 0.000000 0.000000
vt 0.999999 1.000000 0.000000
vt 0.000000 1.000000 0.000000
vt 0.000001 0.000000 0.000000
vt 0.000000 0.000000 1.000000
vt 0.999999 0.000000 1.000000
vt 1.000000 1.000000 1.000000
vt 0.000001 1.000000 1.000000
vt 0.000000 0.000000 0.000000
vt 0.999999 0.000000 0.000000
vt 0.000000 0.000000 0.999999
vt 1.000000 0.000000 1.000000
vt 0.000000 1.000000 0.999999
vt 0.999999 1.000000 1.000000
vt 0.000000 1.000000 1.000000
vt 0.000000 0.000000 0.000001
vt 1.000000 1.000000 0.000000
vt 0.000000 1.000000 0.000001
# 18 texture coords

g box005
usemtl 6h
s 2
f 45/107/25 46/108/25 47/109/25 48/110/25 
s 4
f 49/111/26 50/112/26 51/113/26 52/114/26 
s 8
f 45/115/27 48/116/27 50/108/27 49/109/27 
s 16
f 48/117/28 47/118/28 51/113/28 50/119/28 
s 32
f 47/111/29 46/112/29 52/120/29 51/121/29 
s 64
f 46/122/30 45/107/30 49/123/30 52/124/30 
# 6 polygons

#
# object trim_top
#

v  28.818634 3.349785 0.750001
v  -28.818665 3.349785 0.750001
v  -28.818665 3.349785 0.000001
v  28.818634 3.349785 0.000001
v  31.347198 5.875015 0.750002
v  31.347198 5.875015 0.000002
v  -31.347229 5.875015 0.750002
v  -31.347229 5.875015 0.000002
# 8 vertices

vn 0.000000 -1.000000 -0.000000
vn 0.706640 -0.707573 -0.000000
vn 0.000000 1.000000 0.000000
vn -0.706640 -0.707573 -0.000000
vn 0.000000 0.000000 -1.000000
vn 0.000000 -0.000000 1.000000
# 6 vertex normals

vt 0.959669 1.000000 0.000000
vt 0.040332 1.000000 0.000008
vt 0.040332 0.000000 0.000008
vt 0.959669 0.000000 0.000000
vt 1.000000 1.000000 0.999992
vt 1.000000 0.000000 0.999992
vt 1.000000 1.000000 1.000000
vt 0.000000 1.000000 0.999992
vt 0.000000 0.000000 0.999992
vt 1.000000 0.000000 1.000000
vt 0.000000 1.000000 1.000000
vt 0.000000 0.000000 1.000000
vt 0.000000 0.999992 0.000000
vt 0.040331 0.000000 0.000000
vt 0.959668 0.000008 0.000000
vt 1.000000 1.000000 0.000000
vt 0.040332 0.000008 1.000000
vt 0.959669 0.000000 1.000000
vt 1.000000 0.999992 1.000000
# 19 texture coords

g trim_top
usemtl 6h
s 1
f 53/125/31 54/126/31 55/127/31 56/128/31 
s 4
f 57/129/32 53/125/32 56/128/32 58/130/32 
s 2
f 59/131/33 57/132/33 58/133/33 60/134/33 
s 4
f 54/126/34 59/135/34 60/136/34 55/127/34 
s 16
f 58/137/35 56/138/35 55/139/35 60/140/35 
f 54/141/36 53/142/36 57/143/36 59/135/36 
# 6 polygons

#
# object trim_bottom
#

v  -28.818665 -3.349777 0.750000
v  28.818634 -3.349777 0.750000
v  28.818634 -3.349777 0.000000
v  -28.818665 -3.349777 0.000000
v  -31.347229 -5.875008 0.750000
v  -31.347229 -5.875008 -0.000000
v  31.347198 -5.875008 0.750000
v  31.347198 -5.875008 -0.000000
# 8 vertices

vn 0.000000 1.000000 0.000000
vn -0.706640 0.707573 0.000000
vn 0.000000 -1.000000 -0.000000
vn 0.706640 0.707573 0.000000
vn 0.000000 0.000000 -1.000000
vn 0.000000 -0.000000 1.000000
# 6 vertex normals

vt 0.959669 1.000000 1.000000
vt 0.040332 1.000000 0.999992
vt 0.040332 0.000000 0.999992
vt 0.959669 0.000000 1.000000
vt 1.000000 1.000000 0.000004
vt 1.000000 0.000000 0.000004
vt 1.000000 1.000000 -0.000004
vt -0.000000 1.000000 0.000004
vt -0.000000 0.000000 0.000004
vt 1.000000 0.000000 -0.000004
vt 0.000000 1.000000 -0.000004
vt 0.000000 0.000000 -0.000004
vt 1.000000 0.000004 0.000000
vt 0.959669 1.000000 0.000000
vt 0.040332 0.999992 0.000000
vt 0.000000 -0.000004 0.000000
vt 0.959668 0.999992 1.000000
vt 0.040331 1.000000 1.000000
vt -0.000000 0.000004 1.000000
vt 1.000000 -0.000004 1.000000
# 20 texture coords

g trim_bottom
usemtl 5h
s 1
f 61/144/37 62/145/37 63/146/37 64/147/37 
s 4
f 65/148/38 61/144/38 64/147/38 66/149/38 
s 2
f 67/150/39 65/151/39 66/152/39 68/153/39 
s 4
f 62/145/40 67/154/40 68/155/40 63/146/40 
s 16
f 66/156/41 64/157/41 63/158/41 68/159/41 
f 62/160/42 61/161/42 65/162/42 67/163/42 
# 6 polygons

#
# object trim_left
#

v  -28.846451 3.322037 0.750001
v  -28.846451 -3.322021 0.750000
v  -28.846451 -3.322021 0.000000
v  -28.846451 3.322037 0.000001
v  -31.375015 5.847260 0.750002
v  -31.375015 5.847260 0.000002
v  -31.375015 -5.847252 0.750000
v  -31.375015 -5.847252 -0.000000
# 8 vertices

vn 1.000000 0.000000 -0.000000
vn 0.706639 0.707574 0.000000
vn -1.000000 0.000000 -0.000000
vn 0.706640 -0.707573 -0.000000
vn 0.000000 0.000000 -1.000000
vn 0.000000 -0.000000 1.000000
# 6 vertex normals

vt 0.784067 1.000000 1.000008
vt 0.215933 1.000000 1.000000
vt 0.215933 0.000000 1.000000
vt 0.784067 0.000000 1.000008
vt 1.000000 1.000000 0.000008
vt 1.000000 0.000000 0.000008
vt 1.000000 1.000000 0.000000
vt 0.000000 1.000000 0.000008
vt 0.000000 0.000000 0.000008
vt 1.000000 0.000000 0.000000
vt 0.000000 1.000000 0.000000
vt 0.000000 0.000000 0.000000
vt 0.999992 1.000000 0.000000
vt -0.000008 0.784067 0.000000
vt 0.000000 0.215933 0.000000
vt 1.000000 0.215933 1.000000
vt 1.000008 0.784067 1.000000
vt 0.000008 1.000000 1.000000
vt 0.000000 0.000000 1.000000
# 19 texture coords

g trim_left
usemtl 4v
s 1
f 69/164/43 70/165/43 71/166/43 72/167/43 
s 4
f 73/168/44 69/164/44 72/167/44 74/169/44 
s 2
f 75/170/45 73/171/45 74/172/45 76/173/45 
s 4
f 70/165/46 75/174/46 76/175/46 71/166/46 
s 16
f 74/176/47 72/177/47 71/178/47 76/173/47 
f 70/179/48 69/180/48 73/181/48 75/182/48 
# 6 polygons

#
# object trim_right
#

v  28.846405 -3.322021 0.750000
v  28.846405 3.322037 0.750001
v  28.846405 3.322037 0.000001
v  28.846405 -3.322021 0.000000
v  31.375000 -5.847252 0.750000
v  31.375000 -5.847252 -0.000000
v  31.375000 5.847260 0.750002
v  31.375000 5.847260 0.000002
# 8 vertices

vn -1.000000 0.000000 -0.000000
vn -0.706636 -0.707577 -0.000000
vn 1.000000 0.000000 -0.000000
vn -0.706635 0.707578 0.000000
vn 0.000000 0.000000 -1.000000
vn 0.000000 -0.000000 1.000000
# 6 vertex normals

vt 0.784066 1.000000 -0.000008
vt 0.215932 1.000000 0.000000
vt 0.215932 0.000000 0.000000
vt 0.784066 0.000000 -0.000008
vt 0.999999 1.000000 0.999992
vt 0.999999 0.000000 0.999992
vt 1.000001 1.000000 1.000000
vt 0.000001 1.000000 0.999992
vt 0.000001 0.000000 0.999992
vt 1.000001 0.000000 1.000000
vt -0.000001 1.000000 1.000000
vt -0.000001 0.000000 1.000000
vt 1.000008 0.215934 0.000000
vt 1.000000 0.784068 0.000000
vt 0.000000 1.000001 0.000000
vt 0.000008 0.000001 0.000000
vt 1.000000 1.000001 1.000000
vt 0.000000 0.784068 1.000000
vt -0.000008 0.215934 1.000000
vt 0.999992 0.000001 1.000000
# 20 texture coords

g trim_right
usemtl 4v
s 1
f 77/183/49 78/184/49 79/185/49 80/186/49 
s 4
f 81/187/50 77/183/50 80/186/50 82/188/50 
s 2
f 83/189/51 81/190/51 82/191/51 84/192/51 
s 4
f 78/184/52 83/193/52 84/194/52 79/185/52 
s 16
f 80/195/53 79/196/53 84/197/53 82/198/53 
f 83/199/54 78/200/54 77/201/54 81/202/54 
# 6 polygons

