# 3ds Max Wavefront OBJ Exporter v0.97b - (c)2007 guruware
# File Created: 30.04.2018 22:01:13

mtllib tf5.mtl

#
# object front
#

v  30.000000 0.000000 3.375000
v  -30.000000 0.000000 3.375000
v  -30.000000 0.000000 3.750000
v  30.000000 0.000000 3.750000
v  -30.000000 6.000000 3.750000
v  -30.000000 6.000000 3.375000
v  30.000000 6.000000 3.375000
v  30.000000 6.000000 3.750000
v  -30.000000 2.790609 3.750000
v  30.000000 2.790609 3.750000
v  30.000000 3.209391 3.750000
v  -30.000000 3.209391 3.750000
v  -30.000000 3.000000 3.375000
v  -30.000000 0.000000 3.000000
v  30.000000 0.000000 3.000000
v  30.000000 3.000000 3.000000
v  -30.000000 3.000000 3.000000
v  30.000000 6.000000 3.000000
v  -30.000000 6.000000 3.000000
v  30.000000 3.000000 3.375000
# 20 vertices

vn 0.000000 -1.000000 -0.000000
vn 0.000000 1.000000 -0.000000
vn 0.000000 0.000000 1.000000
vn -1.000000 0.000000 -0.000000
vn 0.000000 0.000000 -1.000000
vn 1.000000 0.000000 -0.000000
vn 0.000000 -0.873110 0.487523
vn 0.000000 0.873110 0.487523
# 8 vertex normals

vt 1.000000 0.500010 0.000000
vt 0.000000 0.499990 0.000000
vt 0.000000 0.000000 0.000000
vt 1.000000 0.000019 0.000000
vt 1.000000 0.000000 1.000000
vt 1.000000 0.499990 1.000000
vt 0.000000 0.500010 1.000000
vt 0.000000 0.000019 1.000000
vt 0.000000 0.000000 0.000019
vt 1.000000 0.000000 0.000000
vt 1.000000 0.465102 0.000000
vt 0.000000 0.465102 0.000019
vt 0.000000 0.534898 0.000019
vt 1.000000 0.534898 0.000000
vt 1.000000 1.000000 0.000000
vt 0.000000 1.000000 0.000019
vt 0.499990 0.000000 1.000000
vt 0.499990 0.500000 1.000000
vt 0.000000 0.465102 1.000000
vt 0.000000 0.000000 1.000000
vt 0.499990 1.000000 1.000000
vt 0.000000 1.000000 1.000000
vt 0.000000 0.534898 1.000000
vt 0.000000 0.000000 0.999981
vt 1.000000 0.500000 1.000000
vt 0.000000 0.500000 0.999981
vt 1.000000 1.000000 1.000000
vt 0.000000 1.000000 0.999981
vt 0.499990 0.000000 0.000000
vt 0.499990 0.500000 0.000000
vt 0.000000 0.500000 0.000000
vt 0.499990 1.000000 0.000000
vt 0.000000 1.000000 0.000000
vt 0.000000 0.999981 0.000000
vt 1.000000 0.999981 1.000000
vt 0.999981 0.000000 1.000000
vt 0.999981 0.500000 1.000000
vt 0.999981 1.000000 1.000000
vt 0.999981 0.000000 0.000000
vt 0.999981 0.465102 0.000000
vt 0.999981 0.534898 0.000000
vt 0.999981 1.000000 0.000000
vt 0.000000 0.500000 0.500010
vt 1.000000 0.500000 0.499990
# 44 texture coords

g front
usemtl 5h
s 2
f 4/4/1 3/3/1 2/2/1 1/1/1 
s 4
f 8/8/2 7/7/2 6/6/2 5/5/2 
s 8
f 10/12/3 9/11/3 3/10/3 4/9/3 
f 8/16/3 5/15/3 12/14/3 11/13/3 
s 16
f 3/20/4 9/19/4 13/18/4 2/17/4 
f 12/23/4 5/22/4 6/21/4 13/18/4 
s 32
f 17/26/5 16/25/5 15/5/5 14/24/5 
f 19/28/5 18/27/5 16/25/5 17/26/5 
s 64
f 15/3/6 16/31/6 20/30/6 1/29/6 
f 16/31/6 18/33/6 7/32/6 20/30/6 
s 2
f 1/1/1 2/2/1 14/34/1 15/15/1 
s 4
f 6/6/2 7/7/2 18/22/2 19/35/2 
s 16
f 2/17/4 13/18/4 17/37/4 14/36/4 
f 13/18/4 6/21/4 19/38/4 17/37/4 
s 64
f 1/29/6 20/30/6 10/40/6 4/39/6 
f 20/30/6 7/32/6 8/42/6 11/41/6 
s 1
f 11/13/7 12/14/7 13/44/7 20/43/7 
s 2
f 20/43/8 13/44/8 9/11/8 10/12/8 
# 18 polygons

#
# object back
#

v  30.000000 0.000000 -3.000000
v  30.000000 0.000000 -3.750000
v  -30.000000 0.000000 -3.750000
v  -30.000000 0.000000 -3.000000
v  30.000000 6.000000 -3.000000
v  -30.000000 6.000000 -3.000000
v  -30.000000 6.000000 -3.750000
v  30.000000 6.000000 -3.750000
# 8 vertices

vn 0.000000 -1.000000 -0.000000
vn 0.000000 1.000000 -0.000000
vn 0.000000 0.000000 1.000000
vn -1.000000 0.000000 -0.000000
vn 0.000000 0.000000 -1.000000
vn 1.000000 0.000000 -0.000000
# 6 vertex normals

vt 1.000000 0.000019 0.000000
vt 1.000000 1.000000 0.000000
vt 0.000000 0.999981 0.000000
vt 0.000000 0.000000 0.000000
vt 0.000000 0.000019 1.000000
vt 1.000000 0.000000 1.000000
vt 1.000000 0.999981 1.000000
vt 0.000000 1.000000 1.000000
vt 0.000000 0.000000 0.000019
vt 1.000000 0.000000 0.000000
vt 0.000000 1.000000 0.000019
vt 0.000000 0.000000 1.000000
vt 0.999981 0.000000 1.000000
vt 0.999981 1.000000 1.000000
vt 0.000000 0.000000 0.999981
vt 1.000000 1.000000 1.000000
vt 0.000000 1.000000 0.999981
vt 0.999981 0.000000 0.000000
vt 0.999981 1.000000 0.000000
vt 0.000000 1.000000 0.000000
# 20 texture coords

g back
usemtl 5h
s 2
f 24/48/9 23/47/9 22/46/9 21/45/9 
s 4
f 28/52/10 27/51/10 26/50/10 25/49/10 
s 8
f 25/55/11 26/46/11 24/54/11 21/53/11 
s 16
f 26/52/12 27/58/12 23/57/12 24/56/12 
s 32
f 27/61/13 28/60/13 22/50/13 23/59/13 
s 64
f 28/64/14 25/63/14 21/62/14 22/48/14 
# 6 polygons

#
# object bottom
#

v  30.000000 0.000000 3.000000
v  30.000000 0.000000 -3.000000
v  -30.000000 0.000000 -3.000000
v  -30.000000 0.000000 3.000000
v  30.000000 0.750000 3.000000
v  -30.000000 0.750000 3.000000
v  -30.000000 0.750000 -3.000000
v  30.000000 0.750000 -3.000000
# 8 vertices

vn 0.000000 -1.000000 -0.000000
vn 0.000000 1.000000 -0.000000
vn 0.000000 0.000000 1.000000
vn -1.000000 0.000000 -0.000000
vn 0.000000 0.000000 -1.000000
vn 1.000000 0.000000 -0.000000
# 6 vertex normals

vt 1.000000 0.000002 0.000000
vt 1.000000 1.000000 0.000000
vt 0.000000 0.999998 0.000000
vt 0.000000 0.000000 0.000000
vt 0.000000 0.000002 1.000000
vt 1.000000 0.000000 1.000000
vt 1.000000 0.999998 1.000000
vt 0.000000 1.000000 1.000000
vt 0.000000 0.000000 0.000002
vt 1.000000 0.000000 0.000000
vt 0.000000 1.000000 0.000002
vt 0.000000 0.000000 1.000000
vt 0.999998 0.000000 1.000000
vt 0.999998 1.000000 1.000000
vt 0.000000 0.000000 0.999998
vt 1.000000 1.000000 1.000000
vt 0.000000 1.000000 0.999998
vt 0.999998 0.000000 0.000000
vt 0.999998 1.000000 0.000000
vt 0.000000 1.000000 0.000000
# 20 texture coords

g bottom
usemtl 6h
s 2
f 32/68/15 31/67/15 30/66/15 29/65/15 
s 4
f 36/72/16 35/71/16 34/70/16 33/69/16 
s 8
f 33/75/17 34/66/17 32/74/17 29/73/17 
s 16
f 34/72/18 35/78/18 31/77/18 32/76/18 
s 32
f 35/81/19 36/80/19 30/70/19 31/79/19 
s 64
f 36/84/20 33/83/20 29/82/20 30/68/20 
# 6 polygons

#
# object right
#

v  27.733635 0.536427 3.187500
v  27.733635 0.536419 -3.187500
v  27.233635 0.536419 -3.187500
v  27.233635 0.536427 3.187500
v  27.733635 6.000004 3.187493
v  27.233635 6.000004 3.187493
v  27.233635 5.999995 -3.187507
v  27.733635 5.999995 -3.187507
# 8 vertices

vn 0.000000 -1.000000 0.000001
vn 0.000000 1.000000 -0.000001
vn 0.000000 0.000001 1.000000
vn -1.000000 0.000000 -0.000000
vn 0.000000 -0.000001 -1.000000
vn 1.000000 0.000000 -0.000000
# 6 vertex normals

vt 1.000000 0.000000 0.000000
vt 0.999997 1.000000 0.000000
vt 0.000000 1.000000 0.000000
vt 0.000003 0.000000 0.000000
vt 0.000000 0.000000 1.000000
vt 0.999997 0.000000 1.000000
vt 1.000000 1.000000 1.000000
vt 0.000003 1.000000 1.000000
vt 0.000000 0.000000 0.000000
vt 0.999997 0.000000 0.000000
vt 0.000000 0.000000 0.999997
vt 1.000000 0.000000 1.000000
vt 0.000000 1.000000 0.999997
vt 0.999997 1.000000 1.000000
vt 0.000000 1.000000 1.000000
vt 0.000000 0.000000 0.000003
vt 1.000000 1.000000 0.000000
vt 0.000000 1.000000 0.000003
# 18 texture coords

g right
usemtl 4v
s 2
f 40/88/21 39/87/21 38/86/21 37/85/21 
s 4
f 44/92/22 43/91/22 42/90/22 41/89/22 
s 8
f 41/87/23 42/86/23 40/94/23 37/93/23 
s 16
f 42/97/24 43/91/24 39/96/24 40/95/24 
s 32
f 43/99/25 44/98/25 38/90/25 39/89/25 
s 64
f 44/102/26 41/101/26 37/85/26 38/100/26 
# 6 polygons

#
# object left
#

v  -27.233635 0.536427 3.187500
v  -27.233635 0.536419 -3.187500
v  -27.733635 0.536419 -3.187500
v  -27.733635 0.536427 3.187500
v  -27.233635 6.000004 3.187493
v  -27.733635 6.000004 3.187493
v  -27.733635 5.999995 -3.187507
v  -27.233635 5.999995 -3.187507
# 8 vertices

vn 0.000000 -1.000000 0.000001
vn 0.000000 1.000000 -0.000001
vn 0.000000 0.000001 1.000000
vn -1.000000 0.000000 -0.000000
vn 0.000000 -0.000001 -1.000000
vn 1.000000 0.000000 -0.000000
# 6 vertex normals

vt 1.000000 0.000000 0.000000
vt 0.999997 1.000000 0.000000
vt 0.000000 1.000000 0.000000
vt 0.000003 0.000000 0.000000
vt 0.000000 0.000000 1.000000
vt 0.999997 0.000000 1.000000
vt 1.000000 1.000000 1.000000
vt 0.000003 1.000000 1.000000
vt 0.000000 0.000000 0.000000
vt 0.999997 0.000000 0.000000
vt 0.000000 0.000000 0.999997
vt 1.000000 0.000000 1.000000
vt 0.000000 1.000000 0.999997
vt 0.999997 1.000000 1.000000
vt 0.000000 1.000000 1.000000
vt 0.000000 0.000000 0.000003
vt 1.000000 1.000000 0.000000
vt 0.000000 1.000000 0.000003
# 18 texture coords

g left
usemtl 4v
s 2
f 48/106/27 47/105/27 46/104/27 45/103/27 
s 4
f 52/110/28 51/109/28 50/108/28 49/107/28 
s 8
f 49/105/29 50/104/29 48/112/29 45/111/29 
s 16
f 50/115/30 51/109/30 47/114/30 48/113/30 
s 32
f 51/117/31 52/116/31 46/108/31 47/107/31 
s 64
f 52/120/32 49/119/32 45/103/32 46/118/32 
# 6 polygons

